<svg xmlns="http://www.w3.org/2000/svg" viewBox="0 0 24 24" fill="none" stroke="currentColor" stroke-width="2" stroke-linecap="round" stroke-linejoin="round">
  <path d="M4.5 16.5c-1.5 1.26-2 2-2 2.5 0 1.5 1.5 2 2.5 2 1.5-1.5 2-2.5 2-2.5-1.5-1-2.5-1.5-2.5-2z"/>
  <path d="M12 18c-1.5 0-3-1-3-2.5 0-1 .5-1.5 1.5-1.5 1 0 1.5.5 1.5 1.5 0 1-1 1.5-1.5 2-1.5.5-2 1-2 1.5 0 .5 1.5 1 3 1.5"/>
  <path d="M17 7.5c1 1 1.5 2.5 1.5 4 0 2-1 3.5-2.5 4.5-1 .7-2 1-3 .5"/>
  <path d="M15 6c-1.5 1-2 3-2 4.5 0 2.5 1.5 4 3.5 5 1.5-.5 2.5-1.5 3-3"/>
  <path d="M9 10c0 2.5 1 4 3 5.5"/>
</svg>